<?xml version="1.0" standalone="no"?>
<!DOCTYPE svg PUBLIC "-//W3C//DTD SVG 20010904//EN"
 "http://www.w3.org/TR/2001/REC-SVG-20010904/DTD/svg10.dtd">
<svg version="1.0" xmlns="http://www.w3.org/2000/svg"
 width="126.000000pt" height="126.000000pt" viewBox="0 0 126.000000 126.000000"
 preserveAspectRatio="xMidYMid meet">
<metadata>
Created by potrace 1.14, written by Peter Selinger 2001-2017
</metadata>
<g transform="translate(0.000000,126.000000) scale(0.100000,-0.100000)"
fill="#000000" stroke="none">
<path d="M1085 944 c-22 -19 -67 -54 -100 -76 -63 -43 -268 -215 -273 -230
-11 -26 -21 1 -24 60 -3 61 -5 67 -25 70 -13 2 -24 0 -24 -5 -7 -42 -4 -402 3
-416 7 -14 13 -15 28 -7 18 10 20 22 20 106 l0 96 31 -20 c34 -21 149 -123
236 -210 29 -28 57 -52 61 -52 10 0 32 22 32 31 0 17 -234 238 -285 268 -31
19 -31 28 -2 53 12 11 36 32 52 46 84 75 155 132 195 158 25 16 54 37 64 47
11 9 35 27 53 40 34 23 49 49 38 67 -11 19 -40 9 -80 -26z"/>
<path d="M693 882 c-34 -16 -65 -31 -69 -35 -4 -4 -14 -7 -21 -7 -8 0 -45 -13
-81 -29 -37 -16 -85 -32 -107 -35 -52 -9 -72 -36 -37 -54 11 -6 35 -5 67 4 68
18 74 17 73 -8 -1 -13 2 -74 6 -135 9 -120 21 -148 52 -122 14 11 15 25 9 84
-3 38 -7 105 -8 148 l-2 79 50 17 c101 37 170 75 170 96 0 29 -31 28 -102 -3z"/>
<path d="M334 890 c-12 -5 -37 -41 -62 -91 -22 -46 -51 -100 -63 -121 -29 -48
-20 -73 24 -64 17 4 52 10 76 13 l44 5 -42 -73 c-92 -163 -146 -278 -134 -290
21 -21 48 2 81 69 19 37 65 124 104 195 84 153 83 163 -19 154 -35 -3 -62 -3
-60 1 43 85 87 182 87 190 0 16 -13 21 -36 12z"/>
</g>
</svg>
